<svg id="Layer_1" data-name="Layer 1" xmlns="http://www.w3.org/2000/svg" xmlns:xlink="http://www.w3.org/1999/xlink" viewBox="0 0 71.51 71.51"><defs><style>.cls-1{fill:none;}.cls-2{clip-path:url(#clip-path);}.cls-3{fill:#e3e4e4;}.cls-4{clip-path:url(#clip-path-2);}.cls-5{fill:#404041;}</style><clipPath id="clip-path"><circle class="cls-1" cx="35.77" cy="35.76" r="35.76"/></clipPath><clipPath id="clip-path-2"><circle class="cls-1" cx="35.76" cy="35.76" r="32.75"/></clipPath></defs><title>phoenix_icons</title><g class="cls-2"><rect class="cls-3" width="71.51" height="71.51"/><rect class="cls-1" width="71.51" height="71.51"/><g class="cls-4"><path class="cls-5" d="M35.81,71.2c-5,0-9.93,0-14.89,0A10.47,10.47,0,0,1,15,69.65a7.63,7.63,0,0,1-3.58-6.21c-.26-5.31.27-10.52,2.74-15.34a9.93,9.93,0,0,1,7.49-5.66,4.1,4.1,0,0,1,3.24.67A21.32,21.32,0,0,0,32,46.63a16,16,0,0,0,12-1.8c.52-.29,1-.64,1.51-.94,1.25-.73,2.31-1.82,4-1.53a10,10,0,0,1,5.87,2.87,14.3,14.3,0,0,1,3.7,7.34,66.38,66.38,0,0,1,1.1,9.68c.15,5.2-3.26,8.62-8.46,8.92l-.55,0Z"/><path class="cls-5" d="M35.75,44.52A13.33,13.33,0,1,1,49.1,31.07,13.33,13.33,0,0,1,35.75,44.52Z"/></g></g></svg>